<svg xmlns="http://www.w3.org/2000/svg" width="920" height="520" viewBox="0 0 920 520" role="img">
<style>
    .title { font: 700 24px Arial, sans-serif; fill: #111827; }
    .subtitle, .label, .legend { font: 14px Arial, sans-serif; fill: #374151; }
    .tick { font: 12px Arial, sans-serif; fill: #4b5563; }
    .axis { stroke: #111827; stroke-width: 1.4; }
    .grid { stroke: #e5e7eb; stroke-width: 1; }
    .series { fill: none; stroke-width: 2.6; stroke-linejoin: round; stroke-linecap: round; }
    .bar { opacity: 0.9; }
  </style>
<text class="title" x="84" y="34">Queue-Aware Market Making</text>
<text class="subtitle" x="84" y="56">fill rate 46.2%; final PnL 58.76; max inventory 8</text>
<line class="axis" x1="84" x2="84" y1="72" y2="444" />
<line class="axis" x1="84" x2="884" y1="444" y2="444" />
<text class="label" x="484.0" y="500" text-anchor="middle">simulation step</text>
<text class="label" transform="translate(24 258.0) rotate(-90)" text-anchor="middle">normalized value</text>
<text class="tick" x="84.0" y="474" text-anchor="middle">0</text>
<text class="tick" x="284.0" y="474" text-anchor="middle">19.75</text>
<text class="tick" x="484.0" y="474" text-anchor="middle">39.5</text>
<text class="tick" x="684.0" y="474" text-anchor="middle">59.25</text>
<text class="tick" x="884.0" y="474" text-anchor="middle">79</text>
<line class="grid" x1="84" x2="884" y1="444.0" y2="444.0" />
<text class="tick" x="72" y="448.0" text-anchor="end">-0.58</text>
<line class="grid" x1="84" x2="884" y1="351.0" y2="351.0" />
<text class="tick" x="72" y="355.0" text-anchor="end">-0.28</text>
<line class="grid" x1="84" x2="884" y1="258.0" y2="258.0" />
<text class="tick" x="72" y="262.0" text-anchor="end">0.02</text>
<line class="grid" x1="84" x2="884" y1="165.0" y2="165.0" />
<text class="tick" x="72" y="169.0" text-anchor="end">0.32</text>
<line class="grid" x1="84" x2="884" y1="72.0" y2="72.0" />
<text class="tick" x="72" y="76.0" text-anchor="end">0.62</text>
<polyline class="series" stroke="#1f77b4" points="84.0,418.3 94.1,418.3 104.3,414.0 114.4,405.3 124.5,401.0 134.6,396.7 144.8,392.4 154.9,383.7 165.0,379.4 175.1,375.1 185.3,366.4 195.4,366.4 205.5,366.4 215.6,362.1 225.8,353.5 235.9,353.5 246.0,349.1 256.2,344.8 266.3,340.5 276.4,336.1 286.5,336.1 296.7,331.7 306.8,323.1 316.9,314.5 327.0,310.1 337.2,305.8 347.3,305.8 357.4,301.5 367.5,297.2 377.7,292.9 387.8,288.5 397.9,284.3 408.1,284.3 418.2,279.9 428.3,275.6 438.4,271.3 448.6,271.3 458.7,266.9 468.8,266.9 478.9,262.6 489.1,258.4 499.2,258.4 509.3,258.4 519.4,258.1 529.6,253.8 539.7,249.4 549.8,249.4 559.9,249.4 570.1,245.1 580.2,240.8 590.3,239.3 600.5,239.5 610.6,234.9 620.7,230.6 630.8,226.3 641.0,217.7 651.1,217.7 661.2,209.0 671.3,200.4 681.5,196.1 691.6,191.8 701.7,191.8 711.8,187.5 722.0,178.8 732.1,170.2 742.2,165.9 752.4,165.9 762.5,161.6 772.6,157.3 782.7,148.7 792.9,144.4 803.0,144.4 813.1,140.0 823.2,131.4 833.4,127.1 843.5,127.1 853.6,122.8 863.7,118.5 873.9,114.2 884.0,109.9" />
<polyline class="series" stroke="#d62728" points="84.0,367.6 94.1,367.6 104.3,329.0 114.4,329.0 124.5,367.6 134.6,406.1 144.8,367.6 154.9,367.6 165.0,406.1 175.1,367.6 185.3,367.6 195.4,367.6 205.5,367.6 215.6,406.1 225.8,406.1 235.9,406.1 246.0,367.6 256.2,329.0 266.3,290.5 276.4,251.9 286.5,251.9 296.7,213.3 306.8,213.3 316.9,213.3 327.0,174.8 337.2,136.2 347.3,136.2 357.4,174.8 367.5,213.3 377.7,174.8 387.8,136.2 397.9,174.8 408.1,174.8 418.2,136.2 428.3,174.8 438.4,136.2 448.6,136.2 458.7,97.7 468.8,97.7 478.9,136.2 489.1,174.8 499.2,174.8 509.3,174.8 519.4,174.8 529.6,213.3 539.7,251.9 549.8,251.9 559.9,251.9 570.1,290.5 580.2,329.0 590.3,315.7 600.5,315.7 610.6,279.3 620.7,317.9 630.8,279.3 641.0,279.3 651.1,279.3 661.2,279.3 671.3,279.3 681.5,240.8 691.6,279.3 701.7,279.3 711.8,240.8 722.0,240.8 732.1,240.8 742.2,279.3 752.4,279.3 762.5,317.9 772.6,279.3 782.7,279.3 792.9,317.9 803.0,317.9 813.1,279.3 823.2,279.3 833.4,240.8 843.5,240.8 853.6,202.2 863.7,240.8 873.9,279.3 884.0,317.9" />
<line class="series" stroke="#1f77b4" x1="102" x2="130" y1="90" y2="90" />
<text class="legend" x="140" y="95">PnL</text>
<line class="series" stroke="#d62728" x1="102" x2="130" y1="112" y2="112" />
<text class="legend" x="140" y="117">Inventory</text>
</svg>
