<svg xmlns="http://www.w3.org/2000/svg" width="920" height="520" viewBox="0 0 920 520" role="img">
<style>
    .title { font: 700 24px Arial, sans-serif; fill: #111827; }
    .subtitle, .label, .legend { font: 14px Arial, sans-serif; fill: #374151; }
    .tick { font: 12px Arial, sans-serif; fill: #4b5563; }
    .axis { stroke: #111827; stroke-width: 1.4; }
    .grid { stroke: #e5e7eb; stroke-width: 1; }
    .series { fill: none; stroke-width: 2.6; stroke-linejoin: round; stroke-linecap: round; }
    .bar { opacity: 0.9; }
  </style>
<text class="title" x="84" y="34">Synthetic Volatility Surface Slices</text>
<text class="subtitle" x="84" y="56">SABR-generated smiles used for calibration and no-arbitrage diagnostics</text>
<line class="axis" x1="84" x2="84" y1="72" y2="444" />
<line class="axis" x1="84" x2="884" y1="444" y2="444" />
<text class="label" x="484.0" y="500" text-anchor="middle">strike</text>
<text class="label" transform="translate(24 258.0) rotate(-90)" text-anchor="middle">implied volatility</text>
<text class="tick" x="84.0" y="474" text-anchor="middle">80</text>
<text class="tick" x="284.0" y="474" text-anchor="middle">90</text>
<text class="tick" x="484.0" y="474" text-anchor="middle">100</text>
<text class="tick" x="684.0" y="474" text-anchor="middle">110</text>
<text class="tick" x="884.0" y="474" text-anchor="middle">120</text>
<line class="grid" x1="84" x2="884" y1="444.0" y2="444.0" />
<text class="tick" x="72" y="448.0" text-anchor="end">0.031</text>
<line class="grid" x1="84" x2="884" y1="351.0" y2="351.0" />
<text class="tick" x="72" y="355.0" text-anchor="end">0.049</text>
<line class="grid" x1="84" x2="884" y1="258.0" y2="258.0" />
<text class="tick" x="72" y="262.0" text-anchor="end">0.067</text>
<line class="grid" x1="84" x2="884" y1="165.0" y2="165.0" />
<text class="tick" x="72" y="169.0" text-anchor="end">0.084</text>
<line class="grid" x1="84" x2="884" y1="72.0" y2="72.0" />
<text class="tick" x="72" y="76.0" text-anchor="end">0.1</text>
<polyline class="series" stroke="#1f77b4" points="84.0,206.2 184.0,260.6 284.0,313.4 384.0,363.2 484.0,404.0 584.0,418.3 684.0,402.8 784.0,376.6 884.0,348.6" />
<polyline class="series" stroke="#2ca02c" points="84.0,191.2 184.0,246.8 284.0,300.6 384.0,351.7 484.0,395.0 584.0,414.0 684.0,400.8 784.0,374.5 884.0,345.8" />
<polyline class="series" stroke="#ff7f0e" points="84.0,161.6 184.0,219.4 284.0,275.4 384.0,329.1 484.0,376.9 584.0,405.0 684.0,398.0 784.0,371.9 884.0,341.7" />
<polyline class="series" stroke="#9467bd" points="84.0,97.7 184.0,160.2 284.0,220.9 384.0,279.7 484.0,334.9 584.0,379.1 684.0,391.0 784.0,369.2 884.0,336.4" />
<line class="series" stroke="#1f77b4" x1="102" x2="130" y1="90" y2="90" />
<text class="legend" x="140" y="95">T=0.25y</text>
<line class="series" stroke="#2ca02c" x1="102" x2="130" y1="112" y2="112" />
<text class="legend" x="140" y="117">T=0.5y</text>
<line class="series" stroke="#ff7f0e" x1="102" x2="130" y1="134" y2="134" />
<text class="legend" x="140" y="139">T=1y</text>
<line class="series" stroke="#9467bd" x1="102" x2="130" y1="156" y2="156" />
<text class="legend" x="140" y="161">T=2y</text>
</svg>
